# xmcd
#
# Track frame offsets:
#	150
#	17723
#	33192
#	46711
#	63264
#	79687
#	94284
#	111222
#	126881
#	142590
#	155243
#	167973
#
# Disc length: 2445 seconds
#
# Revision: 0
# Processed by: cddbd v1.5.2PL0 Copyright (c) Steve Scherf et al.
# Submitted via: MusicManager 7.3.0.0 
#
DISCID=94098b0c
DTITLE=ALAN GREGORY - MEMPHIS
DYEAR=2012
DGENRE=country
TTITLE0=MEMPHIS
TTITLE1=SUNNY IN SEATTLE
TTITLE2=MARINA
TTITLE3=FOOTLOOSE
TTITLE4=TOMORROW
TTITLE5=IF I WAS A WOMAN
TTITLE6=DON'T DRINK THE WATER
TTITLE7=THE WANDERER
TTITLE8=ANOTHER SONG I HAD TO WRITE
TTITLE9=WHISKEY'S GONE
TTITLE10=SEVEN NIGHTS TO ROCK
TTITLE11=OPEN BOOK
EXTD=
EXTT0=
EXTT1=
EXTT2=
EXTT3=
EXTT4=
EXTT5=
EXTT6=
EXTT7=
EXTT8=
EXTT9=
EXTT10=
EXTT11=
PLAYORDER=
